<svg xmlns="http://www.w3.org/2000/svg" viewBox="0 -20 659 160">
	<defs>
		<style>
			.cls-1 {
			fill: #880c18;
			}

			.cls-2 {
			fill: #f15a29;
			}

			.cls-3 {
			fill: #be1e2d;
			}

			.cls-4 {
			fill: #ef4136;
			}

			.cls-5 {
			fill: #f7941d;
			}

			.bold .cls-1 {
			fill: #880c18; }

			.bold .cls-2 {
			fill: #f15a29; }

			.bold .cls-3 {
			fill: #be1e2d; }

			.bold .cls-4 {
			fill: #ef4136; }

			.bold .cls-5 {
			fill: #f7941d; }

		</style>
	</defs>
	<title>Gutenberg</title><svg class="" x="0" y="0"><g>  <path class="cls-1" d="M78.69,61.91c-.07-.27-.65-.76-.85-.95s-.65-.55-1-.85c-.57-.57-1.1-1.18-1.68-1.73C74,57.23,72.89,56,71.72,54.84s-2.33-2.23-3.47-3.37l-1.8-1.8a12.8,12.8,0,0,0-1.64-1.73H75c.71,0,1.42,0,2.12,0a2.67,2.67,0,0,0,.4,0c.77-.19.52-1.12.51-1.75a41.24,41.24,0,0,0-1.56-10.82A26.21,26.21,0,0,0,72.36,27,69.34,69.34,0,0,0,66,20.35L53.72,8.1a24.6,24.6,0,0,0-6.75-5A31.11,31.11,0,0,0,37.59.44c-7.21-.93-15.33-.59-21.87,2.9C1.85,10.73.41,28.93.07,42.87A184.39,184.39,0,0,0,1,67.29c.79,7.26,2.49,15.22,7.39,20.91,2,2.27,4.27,4.32,6.39,6.45l6.13,6.12L27,106.89a20.61,20.61,0,0,0,8.78,5.32,34.52,34.52,0,0,0,11.49,1.24A23.79,23.79,0,0,0,58,110.67a17,17,0,0,0,2.34-1.61c.3-.24.6-.69,1-.6.17.05.65.7.79.84.51.51,1,1,1.5,1.55s.91,1.08,1.43,1.24a4.7,4.7,0,0,0,1.06,0H77.68c.29,0,.88.11,1.15-.07s.25-1.08.25-1.48V63.31C79.08,62.91,79.23,62,78.69,61.91ZM37.53,65.25c.09.4.91,1,1.2,1.31s.9.79,1.32,1.21.78.89,1.2,1.31,1,.66.91,1.47a14,14,0,0,1-4.25,8c-.17-2.17-.28-4.34-.35-6.51q-.06-1.67-.09-3.33C37.46,68.23,37.44,65.23,37.53,65.25ZM59.7,93.09c.14-.27.26-.54.38-.8C60.08,92.65,60.26,93.25,59.7,93.09ZM40.32,39.7a12.41,12.41,0,0,1,3.57-5.24A4.62,4.62,0,0,1,45,33.68c.57-.2.45,0,.86.43.66.66,1.37,1.26,2,1.92l4,4c.63.63,1.24,1.29,1.87,1.92.33.33.68.63,1,1a7.57,7.57,0,0,0,.93,1H39.07A28,28,0,0,1,40.32,39.7Z" transform="translate(0 0)"></path>  <path class="cls-2" d="M41.34,24.2a17,17,0,0,0-1.85-4.92,11.92,11.92,0,0,0-3.26-3.71,7.88,7.88,0,0,0-4.79-1.47q-6.64,0-9.58,7.42T18.92,46.05q0,8.18.51,14.82a57.7,57.7,0,0,0,1.85,11.31,16.38,16.38,0,0,0,3.84,7.16,8.73,8.73,0,0,0,6.45,2.49,9,9,0,0,0,3.64-.89,12.05,12.05,0,0,0,3.71-2.69,14.36,14.36,0,0,0,2.87-4.53,16.6,16.6,0,0,0,1.15-6.46V57.93H30.8V44.39H60.58v49.2H47V85.15h-.25a19.42,19.42,0,0,1-8,7.61A25.69,25.69,0,0,1,27.61,95q-8.43,0-13.74-2.94A20.17,20.17,0,0,1,5.56,83a46.41,46.41,0,0,1-4-15.14,188.15,188.15,0,0,1-1-20.9A122.46,122.46,0,0,1,2,26.75a40.49,40.49,0,0,1,5-14.5A23.13,23.13,0,0,1,16.49,3.5Q22.37.56,31.19.56,46.27.56,52.91,8t6.64,21.41H41.92A24.52,24.52,0,0,0,41.34,24.2Z" transform="translate(0 0)"></path>  <path class="cls-3" d="M62.13,45.35a71651831315880.73,71651831315880.73,0,0,0-.72-.72.49.49,0,0,0-.36-.36.48.48,0,0,0-.47-.38H30.8a.5.5,0,0,0-.5.5V57.93a.49.49,0,0,0,.39.48.47.47,0,0,0,.36.36.47.47,0,0,0,.36.36.47.47,0,0,0,.36.36.48.48,0,0,0,.47.38h10.2v7.39a16.17,16.17,0,0,1-1.11,6.26,14.22,14.22,0,0,1-2.77,4.39A11.74,11.74,0,0,1,35,80.48a8.57,8.57,0,0,1-3.44.85,8.46,8.46,0,0,1-5.38-1.72,17.2,17.2,0,0,1-3-6.13,56.72,56.72,0,0,1-1.83-11.2c-.34-4.38-.51-9.36-.51-14.79,0-11.3,1-19.5,2.9-24.35S28.64,16,32.88,16a7.47,7.47,0,0,1,4.5,1.37l.48.41a11.63,11.63,0,0,1,1.2,1.71,16.76,16.76,0,0,1,1.8,4.77,24.94,24.94,0,0,1,.56,5.14.48.48,0,0,0,.38.47.52.52,0,0,0,.36.37.49.49,0,0,0,.36.35.49.49,0,0,0,.36.36.5.5,0,0,0,.48.39H61a.5.5,0,0,0,.5-.5c0-9.37-2.27-16.68-6.77-21.74-.32-.36-.65-.7-1-1l-.36-.35L53,7.38c-.11-.12-.23-.23-.35-.35-4.55-4.62-11.76-7-21.45-7-5.93,0-11,1-14.92,3A23.65,23.65,0,0,0,6.61,12,41.18,41.18,0,0,0,1.49,26.67,123.4,123.4,0,0,0,0,46.94a188.72,188.72,0,0,0,1,21A47.12,47.12,0,0,0,5.12,83.2,22.32,22.32,0,0,0,9.9,89.79l.37.36.35.35.37.37a19.27,19.27,0,0,0,4.08,3.06c3.59,2,8.3,3,14,3a26.35,26.35,0,0,0,11.39-2.28,18.24,18.24,0,0,0,6.09-4.87v3.81a5.28,5.28,0,0,0,.74.83.5.5,0,0,0,.37.36.46.46,0,0,0,.35.36.51.51,0,0,0,.48.39H62a.51.51,0,0,0,.5-.5V45.83A.5.5,0,0,0,62.13,45.35Zm-24.29-29a12,12,0,0,0-1.31-1.15,8.35,8.35,0,0,0-5.09-1.57c-4.63,0-8,2.6-10,7.73-2,5-3,13.29-3,24.72,0,5.46.17,10.46.51,14.86A58.08,58.08,0,0,0,20.8,72.32a16.92,16.92,0,0,0,4,7.37l.17.15.19.21.18.16.18.2.17.15.19.21c.06.06.12.1.17.16s.13.14.19.2A9.26,9.26,0,0,0,33,83.77a9.54,9.54,0,0,0,3.85-.94A12.7,12.7,0,0,0,40.72,80a15.08,15.08,0,0,0,3-4.69,17.2,17.2,0,0,0,1.19-6.65V59.37a.48.48,0,0,0-.38-.47.49.49,0,0,0-.36-.36.49.49,0,0,0-.36-.36.49.49,0,0,0-.36-.36.49.49,0,0,0-.48-.39H32.74V46.33H60.08V93.09H49v-6.5a.48.48,0,0,0-.38-.47,35825915657937.28,35825915657937.28,0,0,1-.72-.72.49.49,0,0,0-.36-.36.5.5,0,0,0-.48-.39h-.25a.5.5,0,0,0-.43.24,19,19,0,0,1-7.78,7.42,25.32,25.32,0,0,1-11,2.18c-5.51,0-10-1-13.5-2.87a18.62,18.62,0,0,1-3.3-2.37,22.32,22.32,0,0,1-3.36-5,46.26,46.26,0,0,1-4-15,186.62,186.62,0,0,1-1-20.84,122.49,122.49,0,0,1,1.46-20.1A40.07,40.07,0,0,1,8.9,14a22.81,22.81,0,0,1,9.25-8.57C22,3.47,26.85,2.5,32.63,2.5c8.86,0,15.56,2,19.95,5.92C56.8,13.2,59,20.1,59.05,28.94H43.77a25.74,25.74,0,0,0-.5-3.41,17.88,17.88,0,0,0-1.9-5.06,13,13,0,0,0-2.46-3.08L38.56,17l-.38-.37Z" transform="translate(0 0)"></path>  <path class="cls-4" d="M27.61,95.49c-5.68,0-10.39-1-14-3A20.64,20.64,0,0,1,5.12,83.2,47.12,47.12,0,0,1,1,67.89a188.72,188.72,0,0,1-1-21A123.4,123.4,0,0,1,1.49,26.67,41.18,41.18,0,0,1,6.61,12a23.65,23.65,0,0,1,9.66-8.94c4-2,9-3,14.92-3C41.34.06,48.77,2.63,53.28,7.7s6.77,12.37,6.77,21.74a.5.5,0,0,1-.5.5H41.92a.5.5,0,0,1-.5-.5,24.94,24.94,0,0,0-.56-5.14h0a16.76,16.76,0,0,0-1.8-4.77A11.68,11.68,0,0,0,35.94,16a7.47,7.47,0,0,0-4.5-1.37c-4.24,0-7.22,2.33-9.12,7.1s-2.9,13.05-2.9,24.35c0,5.43.17,10.41.51,14.79A56.72,56.72,0,0,0,21.76,72,15.9,15.9,0,0,0,25.47,79a8.28,8.28,0,0,0,6.1,2.35A8.57,8.57,0,0,0,35,80.48a11.74,11.74,0,0,0,3.55-2.57,14.22,14.22,0,0,0,2.77-4.39,16.17,16.17,0,0,0,1.11-6.26V58.43H30.8a.5.5,0,0,1-.5-.5V44.39a.5.5,0,0,1,.5-.5H60.58a.5.5,0,0,1,.5.5v49.2a.51.51,0,0,1-.5.5H47a.51.51,0,0,1-.5-.5V86.45A19.36,19.36,0,0,1,39,93.21,26.43,26.43,0,0,1,27.61,95.49ZM31.19,1.06c-5.78,0-10.64,1-14.48,2.88a22.81,22.81,0,0,0-9.25,8.57,40.07,40.07,0,0,0-5,14.33A122.49,122.49,0,0,0,1,46.94,186.62,186.62,0,0,0,2,67.78a46.26,46.26,0,0,0,4,15,19.69,19.69,0,0,0,8.1,8.86c3.45,1.91,8,2.87,13.5,2.87a25.32,25.32,0,0,0,11-2.18,19,19,0,0,0,7.78-7.42.5.5,0,0,1,.43-.24H47a.5.5,0,0,1,.5.5v7.94H60.08V44.89H31.3V57.43H42.94a.5.5,0,0,1,.5.5v9.33a17.17,17.17,0,0,1-1.19,6.65,14.9,14.9,0,0,1-3,4.69,12.7,12.7,0,0,1-3.86,2.79,9.38,9.38,0,0,1-3.85.94,9.26,9.26,0,0,1-6.81-2.64,16.92,16.92,0,0,1-4-7.37,58.08,58.08,0,0,1-1.87-11.41c-.34-4.4-.51-9.4-.51-14.86,0-11.43,1-19.75,3-24.72,2-5.13,5.42-7.73,10.05-7.73a8.35,8.35,0,0,1,5.09,1.57A12.66,12.66,0,0,1,39.93,19a17.88,17.88,0,0,1,1.9,5.06,24.87,24.87,0,0,1,.58,4.85H59.05c-.08-8.88-2.27-15.8-6.51-20.57S41,1.06,31.19,1.06Z" transform="translate(0 0)"></path>  <path class="cls-5" d="M18.67,23.27c.23-.77.48-1.5.75-2.17q.28-.72.6-1.38H8.73a35.15,35.15,0,0,0-1.17,3.55Z" transform="translate(0 0)"></path>  <path class="cls-5" d="M45.5,23.27H56.31a33.08,33.08,0,0,0-.78-3.55H44.21A20.58,20.58,0,0,1,45.5,23.27Z" transform="translate(0 0)"></path>  <path class="cls-5" d="M57.89,90.89V65.54H47.45v2.63A20.19,20.19,0,0,1,46,76a18.14,18.14,0,0,1-3.6,5.65,15.75,15.75,0,0,1-4.82,3.47,12.55,12.55,0,0,1-5.12,1.21,12.22,12.22,0,0,1-9-3.55,19.88,19.88,0,0,1-4.75-8.7,54.42,54.42,0,0,1-1.64-8.55H5.74c.09,1,.18,1.9.29,2.8a43.05,43.05,0,0,0,3.68,14,16.33,16.33,0,0,0,6.82,7.5c3,1.65,7,2.49,12,2.49a22.27,22.27,0,0,0,9.62-1.88,16,16,0,0,0,6.48-6.25l1.06-1.71h5.86v8.43Z" transform="translate(0 0)"></path>  <polygon class="cls-5" points="57.89 55.89 57.89 48.9 35.31 48.9 35.31 55.24 47.45 55.24 47.45 55.89 57.89 55.89"></polygon>  <path class="cls-5" d="M16.59,36c.18-2.39.43-4.58.73-6.56h-11C6,31.45,5.7,33.64,5.5,36Z" transform="translate(0 0)"></path>  <path class="cls-5" d="M16.23,47c0-1,0-2,0-3H5.08c0,1.27,0,2.55,0,3.87q0,4.2.13,8H16.4C16.29,53.07,16.23,50.1,16.23,47Z" transform="translate(0 0)"></path>  <path class="cls-5" d="M19,7.63A20.78,20.78,0,0,0,16.67,9H48.45a18.14,18.14,0,0,0-3.8-2H20.33Q19.66,7.3,19,7.63Z" transform="translate(0 0)"></path></g></svg><svg class="" x="69" y="0"><g>  <path class="cls-1" d="M77,18.08c-.06-.25-.66-.76-.85-.95l-.72-.72-1.8-1.8-3.24-3.24C68.12,9.15,65.86,7,63.63,4.76c-1.14-1.14-2.23-2.33-3.36-3.47C59.78.81,59.3.1,58.57.06,57,0,55.48.06,54,.06H41.28C40.6.06,40,0,39.94.77a14.25,14.25,0,0,0,0,2V61.86a51.24,51.24,0,0,1-.5,8.93,12.88,12.88,0,0,1-2,5.11V19.69a7,7,0,0,0,0-1c0-.15,0-.13,0-.33-.15-.36-.78-.71-1.06-1s-.79-.89-1.21-1.31c-2.94-2.94-5.93-5.83-8.87-8.77-1.49-1.5-2.94-3-4.44-4.55-.67-.66-1.38-1.27-2-1.93-.35-.35-.49-.67-1-.74a18.06,18.06,0,0,0-2.44,0H3A14.06,14.06,0,0,0,.7.06.67.67,0,0,0,.07.72a19.5,19.5,0,0,0,0,3V60.6A65.72,65.72,0,0,0,1,74.47a25.77,25.77,0,0,0,7,13l8.82,8.82c3.08,3.09,6.06,6.35,9.3,9.27,4.29,3.87,9.81,5.27,15.42,5.86A50,50,0,0,0,60,110.21a22.16,22.16,0,0,0,12.69-9.3c3.86-6,4.66-12.91,4.66-19.86V20.14C77.34,19.7,77.58,18.24,77,18.08Z" transform="translate(0 0)"></path>  <path class="cls-2" d="M19,64.2a41,41,0,0,0,.45,6.32,14.06,14.06,0,0,0,1.66,5,8.85,8.85,0,0,0,3.32,3.33A10.47,10.47,0,0,0,29.7,80a10.42,10.42,0,0,0,5.37-1.21,9.06,9.06,0,0,0,3.26-3.33,14.26,14.26,0,0,0,1.66-5,41,41,0,0,0,.45-6.32V.56h18.4V64.2q0,8.68-2.43,14.37a22.89,22.89,0,0,1-6.52,9,21.94,21.94,0,0,1-9.33,4.47A50.27,50.27,0,0,1,29.7,93.2a56.67,56.67,0,0,1-10.86-1A22.06,22.06,0,0,1,9.51,88,21.33,21.33,0,0,1,3,79.15Q.57,73.39.57,64.2V.56H19Z" transform="translate(0 0)"></path>  <path class="cls-3" d="M60.39,1.52A.49.49,0,0,0,60,1.16.49.49,0,0,0,59.67.8a.49.49,0,0,0-.36-.36.48.48,0,0,0-.47-.38H40.44a.5.5,0,0,0-.5.5V64.2a39.94,39.94,0,0,1-.45,6.24,13.57,13.57,0,0,1-1.6,4.81,8.54,8.54,0,0,1-3.08,3.15,10,10,0,0,1-5.11,1.14,10,10,0,0,1-5.05-1.15,7.76,7.76,0,0,1-1-.68,10,10,0,0,1-.69-1,13.9,13.9,0,0,1-1.6-4.82,41.07,41.07,0,0,1-.44-6.24V2a.5.5,0,0,0-.38-.48.5.5,0,0,0-.37-.36A.49.49,0,0,0,19.8.8a.49.49,0,0,0-.35-.36A.5.5,0,0,0,19,.06H.57a.5.5,0,0,0-.5.5V64.2c0,6.17.83,11.27,2.46,15.14a23.25,23.25,0,0,0,5,7.56c.12.13.24.25.37.37s.23.23.35.35l.36.36a18.58,18.58,0,0,0,2.09,1.89,22.64,22.64,0,0,0,9.53,4.24,57,57,0,0,0,11,1,51.29,51.29,0,0,0,11-1.16,22.8,22.8,0,0,0,9.54-4.57,23.58,23.58,0,0,0,6.66-9.2c1.64-3.84,2.47-8.74,2.47-14.57V2A.5.5,0,0,0,60.39,1.52ZM23.07,78.63l.36.36a9.53,9.53,0,0,0,2.16,1.71A11,11,0,0,0,31.14,82a11,11,0,0,0,5.62-1.28,9.57,9.57,0,0,0,3.44-3.51A15,15,0,0,0,41.92,72a42.12,42.12,0,0,0,.46-6.4V2.5h16V64.2A36.64,36.64,0,0,1,56,78.38a22.56,22.56,0,0,1-6.37,8.81,21.68,21.68,0,0,1-9.12,4.38,54.7,54.7,0,0,1-21.52.12,21.58,21.58,0,0,1-9.12-4.06c-.31-.23-.61-.48-.9-.74a22.82,22.82,0,0,1-4-6.5c-1.59-3.75-2.39-8.71-2.39-14.75V2.5h16V64.2a41.9,41.9,0,0,0,.45,6.4,15,15,0,0,0,1.72,5.15,9.53,9.53,0,0,0,1.71,2.16c.12.12.24.25.37.36S23,78.51,23.07,78.63Z" transform="translate(0 0)"></path>  <path class="cls-4" d="M29.7,93.7a57.06,57.06,0,0,1-11-1,22.53,22.53,0,0,1-9.53-4.25,21.78,21.78,0,0,1-6.68-9.08C.9,75.47.07,70.37.07,64.2V.56a.5.5,0,0,1,.5-.5H19a.5.5,0,0,1,.5.5V64.2a41.07,41.07,0,0,0,.44,6.24,13.77,13.77,0,0,0,1.6,4.81,8.38,8.38,0,0,0,3.14,3.14,10,10,0,0,0,5.05,1.15,10,10,0,0,0,5.11-1.14,8.54,8.54,0,0,0,3.08-3.15,13.57,13.57,0,0,0,1.6-4.81,39.94,39.94,0,0,0,.45-6.24V.56a.5.5,0,0,1,.5-.5h18.4a.5.5,0,0,1,.5.5V64.2c0,5.83-.83,10.73-2.47,14.57A23.48,23.48,0,0,1,50.21,88a22.74,22.74,0,0,1-9.54,4.57A51.29,51.29,0,0,1,29.7,93.7ZM1.07,1.06V64.2c0,6,.8,11,2.39,14.75a20.75,20.75,0,0,0,6.36,8.68,21.58,21.58,0,0,0,9.12,4.06,54.7,54.7,0,0,0,21.52-.12,21.68,21.68,0,0,0,9.12-4.38A22.56,22.56,0,0,0,56,78.38,36.64,36.64,0,0,0,58.34,64.2V1.06H40.94V64.2a42.12,42.12,0,0,1-.46,6.4,14.82,14.82,0,0,1-1.72,5.15,9.57,9.57,0,0,1-3.44,3.51,11,11,0,0,1-5.62,1.28,11,11,0,0,1-5.55-1.28,9.39,9.39,0,0,1-3.51-3.51,15,15,0,0,1-1.72-5.15,41.9,41.9,0,0,1-.45-6.4V1.06Z" transform="translate(0 0)"></path>  <rect class="cls-5" x="44.95" y="27.6" width="11.2" height="6.56"></rect>  <rect class="cls-5" x="5.08" y="27.6" width="11.2" height="6.56"></rect>  <rect class="cls-5" x="44.95" y="42.19" width="11.2" height="11.91"></rect>  <rect class="cls-5" x="5.08" y="42.19" width="11.2" height="11.91"></rect>  <path class="cls-5" d="M12.61,86.08a18.37,18.37,0,0,0,7.83,3.48,53.57,53.57,0,0,0,10.17,1A47.63,47.63,0,0,0,40.7,89.45a18.34,18.34,0,0,0,7.83-3.75A19.52,19.52,0,0,0,54,78.07a33.53,33.53,0,0,0,2.14-13V63.75H45V65.1a44.7,44.7,0,0,1-.5,6.89,17.91,17.91,0,0,1-2.09,6.22,12.65,12.65,0,0,1-4.54,4.62,14,14,0,0,1-7.21,1.72,14.1,14.1,0,0,1-7.1-1.69,12.4,12.4,0,0,1-4.64-4.65A17.78,17.78,0,0,1,16.77,72a44.38,44.38,0,0,1-.49-6.89V63.75H5.08V65.1c0,5.63.72,10.19,2.14,13.56A17.84,17.84,0,0,0,12.61,86.08Z" transform="translate(0 0)"></path>  <rect class="cls-5" x="5.08" y="5.24" width="11.2" height="1.98"></rect>  <rect class="cls-5" x="44.95" y="5.24" width="11.2" height="1.98"></rect>  <rect class="cls-5" x="44.95" y="17.93" width="11.2" height="3.55"></rect>  <rect class="cls-5" x="5.08" y="17.93" width="11.2" height="3.55"></rect></g></svg><svg class="" x="136" y="0"><g>  <path class="cls-1" d="M76.91,18.11c-.09-.37-.93-1-1.21-1.31s-.89-.79-1.31-1.21l-2.52-2.52-5-5c-1.65-1.65-3.27-3.33-4.92-5-.84-.84-1.69-1.66-2.52-2.52A1.11,1.11,0,0,0,58.7.09a20.81,20.81,0,0,0-3.53,0H1.7A5.67,5.67,0,0,0,.61.09C-.09.23,0,.78,0,1.35V15a2.81,2.81,0,0,0,0,.71A3.07,3.07,0,0,0,.9,16.73c.42.42.89.79,1.31,1.21L12.29,28c1.65,1.65,3.27,3.33,4.92,5,.34.33.77,1,1.21,1.14a2.85,2.85,0,0,0,1,0c.26,0,.43-.07.53.08s0,.92,0,1.14V90.87a4.13,4.13,0,0,0,0,.93c.15.58.93,1.11,1.35,1.52.86.82,1.66,1.7,2.52,2.52,3.4,3.25,6.63,6.69,10,10l2.52,2.52c.42.42.89.79,1.31,1.21s.43.63.85.75a9.44,9.44,0,0,0,2.19,0H55.23c.56,0,1.82.24,2.1-.38a6.28,6.28,0,0,0,0-2.12V35.19c0-.18-.11-.79,0-.94s.47-.08.73-.08H76c.63,0,1.17.1,1.27-.67a23.21,23.21,0,0,0,0-3.23v-10C77.29,19.86,77.56,18.27,76.91,18.11Z" transform="translate(0 0)"></path>  <path class="cls-2" d="M58.8,15.67H38.86V91.83H20.46V15.67H.53V.59H58.8Z" transform="translate(0 0)"></path>  <path class="cls-3" d="M60.35,1.55A.47.47,0,0,0,60,1.19a.47.47,0,0,0-.36-.36.47.47,0,0,0-.36-.36A.48.48,0,0,0,58.8.09H.53a.5.5,0,0,0-.5.5V15.67a.48.48,0,0,0,.38.47.47.47,0,0,0,.36.36.47.47,0,0,0,.36.36.47.47,0,0,0,.36.36A.48.48,0,0,0,2,17.6H20V91.83a.48.48,0,0,0,.38.47.49.49,0,0,0,.36.36.49.49,0,0,0,.36.36.49.49,0,0,0,.36.36.5.5,0,0,0,.48.39H40.3a.5.5,0,0,0,.5-.5V17.6H60.24a.5.5,0,0,0,.5-.5V2A.49.49,0,0,0,60.35,1.55Zm-39.41,14a.5.5,0,0,0-.48-.38h-18V2.53H58.3V15.17H38.86a.5.5,0,0,0-.5.5V91.33h-16V17.1a.49.49,0,0,0-.38-.47.49.49,0,0,0-.36-.36.49.49,0,0,0-.36-.36A.49.49,0,0,0,20.94,15.55Z" transform="translate(0 0)"></path>  <path class="cls-4" d="M38.86,92.33H20.46a.5.5,0,0,1-.5-.5V16.17H.53a.5.5,0,0,1-.5-.5V.59a.5.5,0,0,1,.5-.5H58.8a.5.5,0,0,1,.5.5V15.67a.51.51,0,0,1-.5.5H39.36V91.83A.5.5,0,0,1,38.86,92.33Zm-17.9-1h17.4V15.67a.5.5,0,0,1,.5-.5H58.3V1.09H1V15.17H20.46a.5.5,0,0,1,.5.5Z" transform="translate(0 0)"></path>  <rect class="cls-5" x="24.97" y="27.63" width="11.2" height="6.56"></rect>  <rect class="cls-5" x="24.97" y="42.22" width="11.2" height="11.91"></rect>  <rect class="cls-5" x="24.97" y="63.78" width="11.2" height="25.35"></rect>  <rect class="cls-5" x="5.03" y="5.27" width="51.07" height="1.98"></rect>  <rect class="cls-5" x="24.97" y="17.96" width="11.2" height="3.55"></rect></g></svg><svg class="" x="203" y="0"><g>  <path class="cls-1" d="M71,94.21c-.07-.29-.58-.63-.78-.84s-.52-.57-.78-.83c-.54-.54-1.14-1-1.67-1.57-1.11-1.11-2.23-2.23-3.31-3.36-2.14-2.23-4.36-4.41-6.54-6.59l-3.24-3.24-.72-.72a5.51,5.51,0,0,0-.77-.76,1.22,1.22,0,0,0-.51-.12,47,47,0,0,0-4.75,0H38.44c-.14,0-.84.1-.95,0s0-1.94,0-2.27V72.26a4.63,4.63,0,0,1,0-1.39c.16-.33-.08-.12.29-.22a5.23,5.23,0,0,1,1.25,0H63.78c1.16,0,2.34,0,3.51,0,1,0,.87-.69.87-1.51V56.73a8.34,8.34,0,0,0,0-1.58,1.1,1.1,0,0,0-.45-.67c-.57-.56-1.16-1.12-1.73-1.69L59.5,46.31,53,39.83c-.54-.54-1-1.13-1.57-1.67l-.72-.72a4.72,4.72,0,0,0-.85-.82,3.71,3.71,0,0,0-1.37,0H39c-.24,0-1.26.16-1.46,0a7.37,7.37,0,0,1,0-2.3c.15-.25,0-.1.36-.17a18.74,18.74,0,0,1,3.35,0H66.64a18.83,18.83,0,0,0,2.81,0c1-.15.63-1.54.63-2.29V19.43a3.23,3.23,0,0,0,0-1.12c-.11-.26-.58-.55-.76-.74s-.52-.57-.78-.83c-.54-.54-1.13-1-1.67-1.57L60.34,8.69c-2.19-2.19-4.41-4.36-6.55-6.6L52.29.54A1.51,1.51,0,0,0,51.54,0,2.44,2.44,0,0,0,51,0H1.66C1.1,0,.27-.16.09.52a12.57,12.57,0,0,0,0,2.81v87.8c0,.58,0,.67.39,1.11C2.59,94.45,4.8,96.56,7,98.72l6.48,6.48,3.24,3.24c.52.52,1.21,1.67,2,1.82a9.51,9.51,0,0,0,1.77,0H70.36c.66,0,1-.17,1-.89.07-1.72,0-3.46,0-5.18V97.58C71.36,97.06,71.74,94.4,71,94.21Z" transform="translate(0 0)"></path>  <path class="cls-2" d="M51.58,15.6H19V37.07H49.66V52.15H19V76.68H52.86V91.76H.59V.52h51Z" transform="translate(0 0)"></path>  <path class="cls-3" d="M54.41,77.65a.48.48,0,0,0-.35-.36,35825915657987.28,35825915657987.28,0,0,1-.72-.72.51.51,0,0,0-.48-.39H20.93V54.09H51.1a.5.5,0,0,0,.5-.5V38.51a4.85,4.85,0,0,0-.74-.84.49.49,0,0,0-.36-.36,4.85,4.85,0,0,0-.84-.74H20.93v-19H53a.5.5,0,0,0,.5-.5V2a.49.49,0,0,0-.38-.47.49.49,0,0,0-.36-.36.49.49,0,0,0-.36-.36.49.49,0,0,0-.36-.36A.5.5,0,0,0,51.58,0H.59a.51.51,0,0,0-.5.5V91.76a.5.5,0,0,0,.39.48.49.49,0,0,0,.36.36A.49.49,0,0,0,1.2,93a.49.49,0,0,0,.36.36A.48.48,0,0,0,2,93.7H54.3a.5.5,0,0,0,.5-.5V78.12A.49.49,0,0,0,54.41,77.65ZM20,38.63a.49.49,0,0,0,.47.38H49.16V51.65H19a.5.5,0,0,0-.5.5V76.68a.48.48,0,0,0,.38.48.47.47,0,0,0,.36.36.47.47,0,0,0,.36.36.47.47,0,0,0,.36.36.48.48,0,0,0,.47.38H52.36V91.26H2.53V2.46H51.08V15.1H19a.5.5,0,0,0-.5.5V37.07a.5.5,0,0,0,.38.48.49.49,0,0,0,.36.36.49.49,0,0,0,.36.36A.49.49,0,0,0,20,38.63Z" transform="translate(0 0)"></path>  <path class="cls-4" d="M52.86,92.26H.59a.5.5,0,0,1-.5-.5V.52A.51.51,0,0,1,.59,0h51a.5.5,0,0,1,.5.5V15.6a.5.5,0,0,1-.5.5H19.5V36.57H49.66a.5.5,0,0,1,.5.5V52.15a.5.5,0,0,1-.5.5H19.5V76.18H52.86a.5.5,0,0,1,.5.5V91.76A.5.5,0,0,1,52.86,92.26Zm-51.77-1H52.36V77.18H19a.5.5,0,0,1-.5-.5V52.15a.5.5,0,0,1,.5-.5H49.16V37.57H19a.5.5,0,0,1-.5-.5V15.6a.5.5,0,0,1,.5-.5H51.08V1h-50Z" transform="translate(0 0)"></path>  <polygon class="cls-5" points="5.1 63.72 5.1 89.07 50.17 89.07 50.17 81.19 16.3 81.19 16.3 63.72 5.1 63.72"></polygon>  <polygon class="cls-5" points="16.3 49.46 46.97 49.46 46.97 42.16 5.1 42.16 5.1 54.07 16.3 54.07 16.3 49.46"></polygon>  <rect class="cls-5" x="5.1" y="27.57" width="11.2" height="6.56"></rect>  <rect class="cls-5" x="5.1" y="5.2" width="43.79" height="1.98"></rect>  <rect class="cls-5" x="5.1" y="17.9" width="11.2" height="3.55"></rect></g></svg><svg class="" x="264" y="0"><g>  <path class="cls-1" d="M79.28,18.07c-.08-.33-.72-.79-1-1s-.63-.69-1-1c-.66-.66-1.37-1.27-2-1.93-1.26-1.26-2.47-2.57-3.73-3.83C69,7.7,66.38,5.17,63.8,2.59L62,.79c-.33-.33-.47-.65-1-.74a11.9,11.9,0,0,0-2,0H44.87c-.51,0-.93-.07-1.07.55a5.43,5.43,0,0,0,0,1.14V28.27l-1.73-4.85-1.18-3.31a9.15,9.15,0,0,0-.61-1.71,11.18,11.18,0,0,0-1.68-1.69c-.58-.57-1.12-1.17-1.7-1.75-1.13-1.14-2.29-2.29-3.46-3.4-2.37-2.25-4.61-4.63-6.91-6.95C25.37,3.44,24.21,2.26,23,1.14c-.41-.38-.74-1-1.32-1.09a9.89,9.89,0,0,0-1.44,0H1.34C.7.05.2,0,.09.74a33.48,33.48,0,0,0,0,4.59v85a8.82,8.82,0,0,0,0,1.36C.2,92.3.8,92.58,1.2,93c1.14,1.14,2.23,2.33,3.37,3.47,2.34,2.34,4.73,4.62,7.07,7,1.14,1.14,2.22,2.33,3.36,3.47.54.54,1.14,1,1.68,1.57.3.3.54.65.84,1s.59.71.86.82a3.34,3.34,0,0,0,1.18.05h9.92c1.85,0,3.71.06,5.56,0,1,0,.92-.62.92-1.45V81.23l2.69,7.63a14.71,14.71,0,0,0,1.08,3.07A6.77,6.77,0,0,0,40.8,93c.44.41.8.87,1.23,1.3,3.29,3.3,6.59,6.65,9.94,9.89,1.72,1.66,3.34,3.4,5,5,.34.32.75.94,1.21,1.05a3.21,3.21,0,0,0,.62,0H77.12a9.84,9.84,0,0,0,2,0c.75-.18.51-1.28.51-1.89V27.78c0-3,.12-5.94,0-8.9C79.65,18.56,79.72,18.18,79.28,18.07Z" transform="translate(0 0)"></path>  <path class="cls-2" d="M44,63h.26V.55H61.16V91.79H40.21L17.72,27.9h-.26V91.79H.59V.55H21.81Z" transform="translate(0 0)"></path>  <path class="cls-3" d="M62.72,1.51a.49.49,0,0,0-.36-.36A.49.49,0,0,0,62,.79a.49.49,0,0,0-.36-.36.48.48,0,0,0-.48-.38H44.3a.5.5,0,0,0-.5.5v57.7L23.72,1.82a.52.52,0,0,0-.34-.29l0-.07A.52.52,0,0,0,23,1.17l0-.07a.52.52,0,0,0-.34-.29l0-.07A.52.52,0,0,0,22.3.45l0-.07a.5.5,0,0,0-.47-.33H.59a.5.5,0,0,0-.5.5V91.79a.51.51,0,0,0,.39.48.49.49,0,0,0,.36.36A.49.49,0,0,0,1.2,93a.5.5,0,0,0,.36.36.49.49,0,0,0,.47.38H18.9a.5.5,0,0,0,.5-.5v-59L39.73,92a.51.51,0,0,0,.34.3l0,.07a.52.52,0,0,0,.34.29l0,.06a.51.51,0,0,0,.34.3l0,.06a.51.51,0,0,0,.34.3l0,.07a.5.5,0,0,0,.48.33h21a.5.5,0,0,0,.5-.5V2A.5.5,0,0,0,62.72,1.51ZM19.27,28.81a.5.5,0,0,0-.34-.29l0-.07a.5.5,0,0,0-.34-.29l0-.07a.5.5,0,0,0-.34-.29l0-.07a.5.5,0,0,0-.47-.33h-.26a.5.5,0,0,0-.5.5V91.29H2.53V2.49H22L43.57,63.2a.44.44,0,0,0,.33.29l0,.08a.45.45,0,0,0,.33.28l0,.07a.44.44,0,0,0,.33.29l0,.07a.44.44,0,0,0,.33.29l0,.08a.51.51,0,0,0,.47.33h.25a.5.5,0,0,0,.5-.5v-62H60.66v88.8H41.49L19.63,29.17a.5.5,0,0,0-.34-.29Z" transform="translate(0 0)"></path>  <path class="cls-4" d="M61.16,92.29H40.21a.52.52,0,0,1-.48-.34L18,30.1V91.79a.5.5,0,0,1-.5.5H.59a.5.5,0,0,1-.5-.5V.55a.5.5,0,0,1,.5-.5H21.81a.5.5,0,0,1,.47.33L43.8,60.86V.55a.5.5,0,0,1,.5-.5H61.16a.5.5,0,0,1,.5.5V91.79A.5.5,0,0,1,61.16,92.29Zm-20.6-1h20.1V1.05H44.8V63a.51.51,0,0,1-.5.5H44a.51.51,0,0,1-.47-.34L21.45,1.05H1.09V91.29H17V27.9a.5.5,0,0,1,.5-.5h.26a.5.5,0,0,1,.47.33Z" transform="translate(0 0)"></path>  <polygon class="cls-5" points="33.38 42.18 27.15 42.18 31.34 54.09 37.62 54.09 33.38 42.18"></polygon>  <rect class="cls-5" x="5.1" y="42.18" width="9.67" height="11.91"></rect>  <rect class="cls-5" x="48.8" y="42.18" width="9.67" height="11.91"></rect>  <polygon class="cls-5" points="24.32 34.15 30.53 34.15 28.19 27.59 22.01 27.59 24.32 34.15"></polygon>  <rect class="cls-5" x="48.8" y="27.59" width="9.67" height="6.56"></rect>  <rect class="cls-5" x="5.1" y="27.59" width="9.67" height="6.56"></rect>  <polygon class="cls-5" points="58.47 89.1 58.47 63.75 48.8 63.75 48.8 67.55 42.41 67.55 41.06 63.75 34.74 63.75 43.66 89.1 58.47 89.1"></polygon>  <rect class="cls-5" x="5.1" y="63.75" width="9.67" height="25.35"></rect>  <rect class="cls-5" x="48.8" y="5.23" width="9.67" height="1.98"></rect>  <polygon class="cls-5" points="5.1 7.21 20.94 7.21 20.23 5.23 5.1 5.23 5.1 7.21"></polygon>  <polygon class="cls-5" points="5.1 21.47 26.02 21.47 24.75 17.93 5.1 17.93 5.1 21.47"></polygon>  <rect class="cls-5" x="48.8" y="17.93" width="9.67" height="3.55"></rect></g></svg><svg class="bold" x="334" y="0"><g>  <path class="bls-1" d="M72.74,66.67c-2.08-2.2-4.28-4.29-6.43-6.44,8.62-4.8,10.58-15.44,9.06-24.46a21.21,21.21,0,0,0-5.93-11.69q-3.8-3.78-7.57-7.57L54.31,9A37.33,37.33,0,0,0,49.59,4.6a22,22,0,0,0-6.3-3C38.12.07,32.75.08,27.41.08H4.58A27.06,27.06,0,0,0,.76.08C.1.18.1.55.1,1.09V86.15a45.21,45.21,0,0,0,0,5.46.83.83,0,0,0,.18.59A8.13,8.13,0,0,0,1.2,93c.3.3.55.65.85,1,.66.66,1.37,1.27,2,1.93,2.58,2.58,5.11,5.21,7.69,7.79,1.26,1.26,2.57,2.47,3.83,3.73l1.8,1.8c.37.37.69,1,1.22,1.1a13.61,13.61,0,0,0,3.19,0H49.18c7.53,0,15.19-1.34,21.15-6.28,7.54-6.24,9.53-17.4,7.82-26.65A20,20,0,0,0,72.74,66.67ZM37.5,69.3H40a10,10,0,0,1-2.47,4.86Z" transform="translate(0 0)"></path>  <path class="bls-2" d="M31.39.58A44.47,44.47,0,0,1,41.81,1.73a21.54,21.54,0,0,1,8.24,3.83,17.72,17.72,0,0,1,5.37,7.16,28.07,28.07,0,0,1,1.91,11,22.78,22.78,0,0,1-3.45,12.71,17.34,17.34,0,0,1-10.35,7.23v.25a18.09,18.09,0,0,1,12.14,6.52q4.47,5.49,4.47,14.69a36.9,36.9,0,0,1-1.4,10.23A20.87,20.87,0,0,1,54,83.83a24,24,0,0,1-8.82,5.82,36.42,36.42,0,0,1-13.48,2.17H.6V.58ZM24.24,38q7.67,0,11.18-2.74c2.34-1.84,3.51-4.92,3.51-9.27s-1.06-7.41-3.19-9.2-5.5-2.68-10.1-2.68H19V38Zm1.91,40.26q6.65,0,10.74-2.94T41,64.47a17.36,17.36,0,0,0-1.09-6.58A10.91,10.91,0,0,0,37,53.68a10.49,10.49,0,0,0-4.41-2.24,22.9,22.9,0,0,0-5.62-.64H19V78.28Z" transform="translate(0 0)"></path>  <path class="bls-3" d="M56.18,50.1c-.12-.13-.24-.24-.36-.36l-.36-.35c-.12-.13-.24-.25-.37-.37a17.79,17.79,0,0,0-7-4.52,17.1,17.1,0,0,0,7.62-6.36,23.33,23.33,0,0,0,3.53-13,28.57,28.57,0,0,0-2-11.19,18.8,18.8,0,0,0-4.09-6.08l-.36-.37c-.12-.12-.25-.24-.37-.37l-.35-.34a17.21,17.21,0,0,0-1.79-1.63,21.93,21.93,0,0,0-8.44-3.93A45.42,45.42,0,0,0,31.39.08H.6a.5.5,0,0,0-.5.5V91.82a.49.49,0,0,0,.38.48.49.49,0,0,0,.36.36A.49.49,0,0,0,1.2,93a.49.49,0,0,0,.36.36.48.48,0,0,0,.48.38H33.09a37.06,37.06,0,0,0,13.67-2.21,24.4,24.4,0,0,0,9-5.94,21.42,21.42,0,0,0,4.91-8.7,37.41,37.41,0,0,0,1.42-10.36c0-6.22-1.54-11.27-4.58-15A18.18,18.18,0,0,0,56.18,50.1ZM2.54,2.52H32.83a43.92,43.92,0,0,1,10.3,1.14,20.77,20.77,0,0,1,8,3.74l.7.58A18.21,18.21,0,0,1,55,12.92a27.6,27.6,0,0,1,1.87,10.79,22.36,22.36,0,0,1-3.37,12.44,16.88,16.88,0,0,1-10.06,7,.5.5,0,0,0-.37.49v.25a4.85,4.85,0,0,0,.74.84.5.5,0,0,0,.36.36.5.5,0,0,0,.36.36.52.52,0,0,0,.42.38,18.14,18.14,0,0,1,9.85,4.31c.18.2.36.38.52.58,2.9,3.56,4.36,8.4,4.36,14.38A36.32,36.32,0,0,1,58.26,75.2a20.45,20.45,0,0,1-4.68,8.29,23.43,23.43,0,0,1-8.64,5.69,36.05,36.05,0,0,1-13.29,2.14H2.54Z" transform="translate(0 0)"></path>  <path class="bls-3" d="M42.92,65.91a17.8,17.8,0,0,0-1.13-6.77,11.81,11.81,0,0,0-2.49-3.83c-.12-.13-.24-.24-.36-.36s-.24-.24-.36-.36-.24-.24-.36-.36a9.15,9.15,0,0,0-.94-.93A11.2,11.2,0,0,0,32.66,51a24,24,0,0,0-5.74-.65H19a.5.5,0,0,0-.5.5V78.28a.48.48,0,0,0,.38.47.49.49,0,0,0,.36.36.47.47,0,0,0,.36.36.47.47,0,0,0,.36.36.49.49,0,0,0,.48.38h7.15c4.52,0,8.23-1,11-3S42.92,71.34,42.92,65.91Zm-3.49-7.83a17.07,17.07,0,0,1,1,6.39c0,5.09-1.31,8.61-3.88,10.46s-6.14,2.85-10.45,2.85H20.94v-25h7.42a22.51,22.51,0,0,1,5.5.63,10.2,10.2,0,0,1,3.91,1.9A11.71,11.71,0,0,1,39.43,58.08Z" transform="translate(0 0)"></path>  <path class="bls-3" d="M18.88,38.5a.5.5,0,0,0,.36.36.49.49,0,0,0,.36.36.49.49,0,0,0,.36.36.48.48,0,0,0,.48.38h5.24c5.2,0,9.06-1,11.49-2.85s3.7-5.17,3.7-9.66c0-4.16-1-7.22-2.92-9.14-.11-.13-.24-.24-.35-.36s-.25-.24-.37-.36-.24-.24-.36-.36a6.8,6.8,0,0,0-.81-.8c-2.21-1.86-5.72-2.8-10.42-2.8H19a.5.5,0,0,0-.5.5V38A.48.48,0,0,0,18.88,38.5ZM38.43,26c0,4.16-1.12,7.15-3.32,8.87s-5.9,2.64-10.87,2.64h-3.3V16.07h6.14c4.2,0,7.35.77,9.4,2.28C37.77,20.11,38.43,22.67,38.43,26Z" transform="translate(0 0)"></path>  <path class="bls-4" d="M31.65,92.32H.6a.5.5,0,0,1-.5-.5V.58A.5.5,0,0,1,.6.08H31.39A45.42,45.42,0,0,1,41.92,1.24a21.93,21.93,0,0,1,8.44,3.93,18.35,18.35,0,0,1,5.52,7.35,28.72,28.72,0,0,1,1.95,11.19,23.42,23.42,0,0,1-3.53,13,17.44,17.44,0,0,1-9.15,7A18.32,18.32,0,0,1,56.06,50.1c3,3.74,4.58,8.79,4.58,15a37.09,37.09,0,0,1-1.42,10.36,21.42,21.42,0,0,1-4.91,8.7,24.48,24.48,0,0,1-9,5.94A37.06,37.06,0,0,1,31.65,92.32Zm-30.55-1H31.65a36.05,36.05,0,0,0,13.29-2.14,23.43,23.43,0,0,0,8.64-5.69,20.45,20.45,0,0,0,4.68-8.29,36.32,36.32,0,0,0,1.38-10.09c0-6-1.46-10.82-4.36-14.38A17.67,17.67,0,0,0,43.47,44.4a.51.51,0,0,1-.44-.5v-.25a.5.5,0,0,1,.37-.49,16.88,16.88,0,0,0,10.06-7,22.36,22.36,0,0,0,3.37-12.44A27.6,27.6,0,0,0,55,12.92a17.31,17.31,0,0,0-5.22-7,20.77,20.77,0,0,0-8.05-3.74,44,44,0,0,0-10.3-1.14H1.1Zm25-12.54H19a.5.5,0,0,1-.5-.5V50.8a.5.5,0,0,1,.5-.5h7.92a24,24,0,0,1,5.74.65,11.2,11.2,0,0,1,4.62,2.35,11.52,11.52,0,0,1,3.07,4.4,17.8,17.8,0,0,1,1.13,6.77c0,5.43-1.45,9.22-4.3,11.27S30.67,78.78,26.15,78.78Zm-6.65-1h6.65c4.31,0,7.82-1,10.45-2.85s3.88-5.37,3.88-10.46a17.07,17.07,0,0,0-1-6.39,10.52,10.52,0,0,0-2.81-4,10,10,0,0,0-4.2-2.13,22.51,22.51,0,0,0-5.5-.63H19.5Zm4.74-39.26H19a.5.5,0,0,1-.5-.5V14.13a.5.5,0,0,1,.5-.5h6.64c4.7,0,8.21.94,10.42,2.8s3.37,5.1,3.37,9.58-1.25,7.74-3.7,9.66S29.44,38.52,24.24,38.52Zm-4.74-1h4.74c5,0,8.63-.89,10.87-2.64s3.32-4.71,3.32-8.87-1-7.14-3-8.82-5.32-2.56-9.78-2.56H19.5Z" transform="translate(0 0)"></path>  <path class="bls-5" d="M45.49,65.38c0,6.48-1.88,11.12-5.59,13.79-3.34,2.4-7.66,3.61-12.84,3.61H16.31v-19H5.1V89.13H32.56A33.34,33.34,0,0,0,44.7,87.22a20.51,20.51,0,0,0,7.52-4.93,17.09,17.09,0,0,0,4-7A33.25,33.25,0,0,0,57.45,66c0-.77,0-1.52-.08-2.24H45.42C45.45,64.3,45.49,64.83,45.49,65.38Z" transform="translate(0 0)"></path>  <path class="bls-5" d="M54.47,27.62H43.41a18.29,18.29,0,0,1-1.25,6.56H52.47A18.65,18.65,0,0,0,54.47,27.62Z" transform="translate(0 0)"></path>  <rect class="bls-5" x="5.1" y="27.62" width="11.2" height="6.56"></rect>  <path class="bls-5" d="M5.1,7.24H45.15a20.24,20.24,0,0,0-3.27-1.1,38.75,38.75,0,0,0-5.74-.88H5.1Z" transform="translate(0 0)"></path>  <path class="bls-5" d="M42.83,21.5H54.5A24.55,24.55,0,0,0,54,18H41.42A13.85,13.85,0,0,1,42.83,21.5Z" transform="translate(0 0)"></path>  <rect class="bls-5" x="5.1" y="17.96" width="11.2" height="3.55"></rect>  <path class="bls-5" d="M16.31,48.11H27.83a26.77,26.77,0,0,1,6.5.75,14.18,14.18,0,0,1,5.88,3,13.06,13.06,0,0,1,2.06,2.26h11.9c-.13-.17-.24-.35-.38-.52A14.51,14.51,0,0,0,44,48.38L40.84,48V42.21H30a35.08,35.08,0,0,1-4.88.32H16.31v-.32H5.1V54.12H16.31Z" transform="translate(0 0)"></path></g></svg><svg class="bold" x="409" y="0"><g>  <path class="bls-1" d="M71,94.21c-.07-.29-.58-.63-.78-.84s-.52-.57-.78-.83c-.54-.54-1.14-1-1.67-1.57-1.11-1.11-2.23-2.23-3.31-3.36-2.14-2.23-4.36-4.41-6.54-6.59l-3.24-3.24-.72-.72a5.51,5.51,0,0,0-.77-.76,1.22,1.22,0,0,0-.51-.12,47,47,0,0,0-4.75,0H38.44c-.14,0-.84.1-.95,0s0-1.94,0-2.27V72.26a4.63,4.63,0,0,1,0-1.39c.16-.33-.08-.12.29-.22a5.23,5.23,0,0,1,1.25,0H63.78c1.16,0,2.34,0,3.51,0,1,0,.87-.69.87-1.51V56.73a8.34,8.34,0,0,0,0-1.58,1.1,1.1,0,0,0-.45-.67c-.57-.56-1.16-1.12-1.73-1.69L59.5,46.31,53,39.83c-.54-.54-1-1.13-1.57-1.67l-.72-.72a4.72,4.72,0,0,0-.85-.82,3.71,3.71,0,0,0-1.37,0H39c-.24,0-1.26.16-1.46,0a7.37,7.37,0,0,1,0-2.3c.15-.25,0-.1.36-.17a18.74,18.74,0,0,1,3.35,0H66.64a18.83,18.83,0,0,0,2.81,0c1-.15.63-1.54.63-2.29V19.43a3.23,3.23,0,0,0,0-1.12c-.11-.26-.58-.55-.76-.74s-.52-.57-.78-.83c-.54-.54-1.13-1-1.67-1.57L60.34,8.69c-2.19-2.19-4.41-4.36-6.55-6.6L52.29.54A1.51,1.51,0,0,0,51.54,0,2.44,2.44,0,0,0,51,0H1.66C1.1,0,.27-.16.09.52a12.57,12.57,0,0,0,0,2.81v87.8c0,.58,0,.67.39,1.11C2.59,94.45,4.8,96.56,7,98.72l6.48,6.48,3.24,3.24c.52.52,1.21,1.67,2,1.82a9.51,9.51,0,0,0,1.77,0H70.36c.66,0,1-.17,1-.89.07-1.72,0-3.46,0-5.18V97.58C71.36,97.06,71.74,94.4,71,94.21Z" transform="translate(0 0)"></path>  <path class="bls-2" d="M51.58,15.6H19V37.07H49.66V52.15H19V76.68H52.86V91.76H.59V.52h51Z" transform="translate(0 0)"></path>  <path class="bls-3" d="M54.41,77.65a.48.48,0,0,0-.35-.36,35825915657987.28,35825915657987.28,0,0,1-.72-.72.51.51,0,0,0-.48-.39H20.93V54.09H51.1a.5.5,0,0,0,.5-.5V38.51a4.85,4.85,0,0,0-.74-.84.49.49,0,0,0-.36-.36,4.85,4.85,0,0,0-.84-.74H20.93v-19H53a.5.5,0,0,0,.5-.5V2a.49.49,0,0,0-.38-.47.49.49,0,0,0-.36-.36.49.49,0,0,0-.36-.36.49.49,0,0,0-.36-.36A.5.5,0,0,0,51.58,0H.59a.51.51,0,0,0-.5.5V91.76a.5.5,0,0,0,.39.48.49.49,0,0,0,.36.36A.49.49,0,0,0,1.2,93a.49.49,0,0,0,.36.36A.48.48,0,0,0,2,93.7H54.3a.5.5,0,0,0,.5-.5V78.12A.49.49,0,0,0,54.41,77.65ZM20,38.63a.49.49,0,0,0,.47.38H49.16V51.65H19a.5.5,0,0,0-.5.5V76.68a.48.48,0,0,0,.38.48.47.47,0,0,0,.36.36.47.47,0,0,0,.36.36.47.47,0,0,0,.36.36.48.48,0,0,0,.47.38H52.36V91.26H2.53V2.46H51.08V15.1H19a.5.5,0,0,0-.5.5V37.07a.5.5,0,0,0,.38.48.49.49,0,0,0,.36.36.49.49,0,0,0,.36.36A.49.49,0,0,0,20,38.63Z" transform="translate(0 0)"></path>  <path class="bls-4" d="M52.86,92.26H.59a.5.5,0,0,1-.5-.5V.52A.51.51,0,0,1,.59,0h51a.5.5,0,0,1,.5.5V15.6a.5.5,0,0,1-.5.5H19.5V36.57H49.66a.5.5,0,0,1,.5.5V52.15a.5.5,0,0,1-.5.5H19.5V76.18H52.86a.5.5,0,0,1,.5.5V91.76A.5.5,0,0,1,52.86,92.26Zm-51.77-1H52.36V77.18H19a.5.5,0,0,1-.5-.5V52.15a.5.5,0,0,1,.5-.5H49.16V37.57H19a.5.5,0,0,1-.5-.5V15.6a.5.5,0,0,1,.5-.5H51.08V1h-50Z" transform="translate(0 0)"></path>  <polygon class="bls-5" points="5.1 63.72 5.1 89.07 50.17 89.07 50.17 81.19 16.3 81.19 16.3 63.72 5.1 63.72"></polygon>  <polygon class="bls-5" points="16.3 49.46 46.97 49.46 46.97 42.16 5.1 42.16 5.1 54.07 16.3 54.07 16.3 49.46"></polygon>  <rect class="bls-5" x="5.1" y="27.57" width="11.2" height="6.56"></rect>  <rect class="bls-5" x="5.1" y="5.2" width="43.79" height="1.98"></rect>  <rect class="bls-5" x="5.1" y="17.9" width="11.2" height="3.55"></rect></g></svg><svg class="bold" x="470" y="0"><g>  <path class="bls-1" d="M80.65,108.55a6.49,6.49,0,0,1-1.08-1.08,5.32,5.32,0,0,1-1.17-1.37,12.92,12.92,0,0,1-1.08-4.86c-.38-4.1-.48-8.22-.63-12.34-.27-7,0-15.38-5.28-20.67C69.8,66.62,68.15,65,66.58,63.4c5.16-2.45,8.32-7.17,9.73-12.59a34.94,34.94,0,0,0-.06-17.59,20.62,20.62,0,0,0-3.09-6.59,35.38,35.38,0,0,0-3.87-4.16l-6.56-6.56L56.17,9.35C55.1,8.27,54,7.18,52.94,6.11a19.82,19.82,0,0,0-6.24-4C40.87-.26,34.6,0,28.44,0H1.34C.83,0,.23-.12.06.51A3.53,3.53,0,0,0,.06,1C0,4,.06,7,.06,10.06V89.9a8.09,8.09,0,0,0,0,1.84c.07.24.15.27.29.44a18.65,18.65,0,0,0,1.31,1.36c.81.81,1.66,1.57,2.45,2.4C5.69,97.59,7.32,99.23,9,100.8s3.28,3.33,4.92,5c.82.81,1.67,1.57,2.46,2.4.38.4.76.81,1.15,1.2a3.19,3.19,0,0,0,1.07.87,8.31,8.31,0,0,0,1.93,0H34.83a9.39,9.39,0,0,0,2.12,0c.62-.15.51-.64.51-1.14v-37c0-.74.24-.48,1-.48.47,0,.71-.14.87.2a5,5,0,0,1,0,1.45l.15,5.08c.11,3.81-.15,8.11,1.36,11.65,1,2.28,3,3.92,4.74,5.61s3.29,3.21,4.92,4.84,3.27,3.31,4.92,5c.81.81,1.6,1.63,2.4,2.44.4.39.81.77,1.2,1.16s.78,1,1.25,1.17a5.46,5.46,0,0,0,1.76,0h17.7a2.72,2.72,0,0,0,.57,0C80.92,110.12,81.25,108.88,80.65,108.55Zm-43.19-76h1.69a10.08,10.08,0,0,1-1.69,3.31Z" transform="translate(0 0)"></path>  <path class="bls-2" d="M34.55.51q11.51,0,17.89,5.82T58.83,24q0,9.21-3.7,15t-11.5,7.47v.26q6.9,1,10.09,4.47t4,11.12c.17,1.71.3,3.56.39,5.56s.17,4.24.25,6.71q.26,7.28.77,11.12c.51,2.55,1.62,4.3,3.32,5.23v.77H42.48a9.8,9.8,0,0,1-1.79-4.41,46.91,46.91,0,0,1-.51-5.17l-.51-17.51c-.18-3.58-1.07-6.39-2.69-8.43s-4.34-3.07-8.18-3.07H19V91.75H.56V.51ZM26.63,40.38q6.65,0,10.22-3.13t3.58-10.54q0-12.66-12.78-12.65H19V40.38Z" transform="translate(0 0)"></path>  <path class="bls-3" d="M64.09,92l-.15-.1a.42.42,0,0,0-.21-.26l-.15-.1a.42.42,0,0,0-.21-.26l-.15-.1a.42.42,0,0,0-.21-.26l-.14-.1a.47.47,0,0,0-.22-.26l-.36-.23A8.72,8.72,0,0,1,61,87.12c-.33-2.53-.59-6.26-.76-11.07-.08-2.47-.17-4.71-.25-6.71s-.22-3.88-.39-5.59c-.52-5.19-1.9-9-4.09-11.41-.1-.11-.22-.21-.33-.32l0,0c-.1-.1-.22-.2-.32-.31a.1.1,0,0,1,0-.05c-.1-.11-.22-.21-.33-.31l0-.05c-.1-.11-.22-.21-.32-.31l0-.05a13.76,13.76,0,0,0-5.54-3.44A16.75,16.75,0,0,0,57,40.75c2.51-3.94,3.78-9.08,3.78-15.28,0-8-2.2-14.11-6.55-18.07l-.06-.05c-.1-.1-.19-.22-.3-.31s0,0,0,0l-.31-.31-.06,0c-.1-.1-.19-.22-.3-.31l0-.05c-.11-.1-.2-.21-.31-.31C48.44,2,42.31,0,34.55,0H.56a.51.51,0,0,0-.5.5V91.75a.5.5,0,0,0,.39.48.49.49,0,0,0,.36.36.49.49,0,0,0,.36.36.49.49,0,0,0,.36.36.48.48,0,0,0,.47.38H20.4a.5.5,0,0,0,.5-.5V55.1h9.34a11.12,11.12,0,0,1,6.53,1.68,14.29,14.29,0,0,1,2.4,7.9l.51,17.51a49,49,0,0,0,.51,5.23,10.45,10.45,0,0,0,1.88,4.63.49.49,0,0,0,.24.16l.12.2a.49.49,0,0,0,.24.16l.12.2a.49.49,0,0,0,.24.16l.12.2a.49.49,0,0,0,.24.16l.12.2a.51.51,0,0,0,.41.2H63.85a.5.5,0,0,0,.5-.5v-.76A.49.49,0,0,0,64.09,92ZM37.27,55.77l-.35-.35c-1.75-1.82-4.46-2.76-8.12-2.76H19a.5.5,0,0,0-.5.5V91.25H2.5V2.45H36c7.37,0,13.19,1.86,17.33,5.5,3.32,3.75,5,9.14,5,16.07,0,6-1.22,11-3.62,14.75S48.56,45,43.52,46a.49.49,0,0,0-.39.48v.26a.5.5,0,0,0,.38.48.49.49,0,0,0,.36.36.49.49,0,0,0,.36.36.47.47,0,0,0,.36.36.49.49,0,0,0,.4.37,18,18,0,0,1,8.75,3.36c1.82,2.24,3,5.7,3.45,10.35.16,1.69.29,3.55.38,5.53s.17,4.24.25,6.71c.17,4.84.43,8.6.78,11.19A8.51,8.51,0,0,0,61,90.54c.11.13.24.25.36.37s.23.23.35.34H43.38a9.71,9.71,0,0,1-.76-2.54,49.88,49.88,0,0,1-.5-5.12L41.6,66.08a14.86,14.86,0,0,0-2.79-8.72A6.6,6.6,0,0,0,38,56.5l-.36-.36C37.52,56,37.4,55.89,37.27,55.77Z" transform="translate(0 0)"></path>  <path class="bls-3" d="M42.37,28.15c0-4.47-1.18-7.81-3.51-10q-.18-.2-.36-.36t-.36-.36q-.18-.2-.36-.36c-2.22-2.33-5.59-3.51-10.13-3.51H19a.5.5,0,0,0-.5.5V40.38a.5.5,0,0,0,.39.48.49.49,0,0,0,.36.36.49.49,0,0,0,.36.36.49.49,0,0,0,.36.36.48.48,0,0,0,.47.38h7.67c4.54,0,8.09-1.09,10.55-3.25S42.37,33.22,42.37,28.15Zm-2.44-1.44c0,4.76-1.14,8.19-3.4,10.16s-5.61,3-9.9,3H20.9V16h8.19c3.68,0,6.51.79,8.53,2.38C39.17,20.37,39.93,23.14,39.93,26.71Z" transform="translate(0 0)"></path>  <path class="bls-4" d="M62.41,92.25H42.48a.51.51,0,0,1-.41-.2,10.45,10.45,0,0,1-1.88-4.63,49,49,0,0,1-.51-5.23l-.51-17.51a14,14,0,0,0-2.58-8.14c-1.51-1.91-4.13-2.88-7.79-2.88H19.46V91.75a.5.5,0,0,1-.5.5H.56a.5.5,0,0,1-.5-.5V.51A.51.51,0,0,1,.56,0h34c7.76,0,13.89,2,18.23,6S59.33,16,59.33,24c0,6.21-1.27,11.35-3.78,15.29a17.2,17.2,0,0,1-10.13,7.27c3.84.8,6.75,2.25,8.67,4.32,2.2,2.38,3.57,6.21,4.09,11.41.17,1.71.3,3.59.39,5.59s.17,4.24.25,6.71c.17,4.81.43,8.54.77,11.07.47,2.36,1.5,4,3.06,4.87a.48.48,0,0,1,.26.43v.77A.5.5,0,0,1,62.41,92.25Zm-19.68-1H61.88a7.8,7.8,0,0,1-3.28-5.41c-.35-2.59-.61-6.35-.78-11.19-.08-2.47-.17-4.71-.25-6.71s-.22-3.84-.38-5.53c-.5-5-1.79-8.62-3.83-10.83S48,47.93,43.55,47.26a.49.49,0,0,1-.42-.49v-.26a.49.49,0,0,1,.39-.48c5-1.08,8.8-3.52,11.19-7.26S58.33,30,58.33,24c0-7.73-2.09-13.56-6.22-17.32S42.06,1,34.55,1H1.06V91.25h17.4V53.16a.5.5,0,0,1,.5-.5H28.8c4,0,6.86,1.1,8.57,3.26a15,15,0,0,1,2.8,8.72l.51,17.51a49.6,49.6,0,0,0,.5,5.12A9.46,9.46,0,0,0,42.73,91.25ZM26.63,40.88H19a.5.5,0,0,1-.5-.5V14.06a.5.5,0,0,1,.5-.5h8.69c8.81,0,13.28,4.42,13.28,13.15,0,5.07-1.26,8.74-3.75,10.92S31.17,40.88,26.63,40.88Zm-7.17-1h7.17c4.29,0,7.62-1,9.9-3s3.4-5.4,3.4-10.16c0-8.18-4-12.15-12.28-12.15H19.46Z" transform="translate(0 0)"></path>  <rect class="bls-5" x="5.07" y="27.55" width="11.2" height="6.56"></rect>  <path class="bls-5" d="M54.82,34.11A26.48,26.48,0,0,0,56,27.55H44.94v.07a24.68,24.68,0,0,1-.8,6.49Z" transform="translate(0 0)"></path>  <rect class="bls-5" x="5.07" y="63.71" width="11.2" height="25.35"></rect>  <path class="bls-5" d="M44.17,65.46l.51,17.45c.08,1.63.24,3.25.47,4.79a6.94,6.94,0,0,0,.35,1.36H56.9a16.23,16.23,0,0,1-.43-1.7l0-.11v-.12c-.36-2.7-.62-6.45-.8-11.47-.08-2.46-.17-4.69-.25-6.68s-.2-3.67-.36-5.27H44C44.09,64.28,44.14,64.86,44.17,65.46Z" transform="translate(0 0)"></path>  <path class="bls-5" d="M16.27,50.47H29.71c4.47,0,7.9,1.21,10.24,3.58H51.42c-1.6-1.37-4.09-2.32-7.41-2.81l-3.07-.45V44.51l2.85-.61a17.2,17.2,0,0,0,4.8-1.75H38.39a19.93,19.93,0,0,1-10.85,2.74H16.27V42.15H5.07v11.9h11.2Z" transform="translate(0 0)"></path>  <path class="bls-5" d="M5.07,7.17H46.72a24,24,0,0,0-7.87-2H5.07Z" transform="translate(0 0)"></path>  <path class="bls-5" d="M44.1,21.44H56a24.85,24.85,0,0,0-.57-3.55H42.55A14.45,14.45,0,0,1,44.1,21.44Z" transform="translate(0 0)"></path>  <rect class="bls-5" x="5.07" y="17.89" width="11.2" height="3.55"></rect></g></svg>

	<svg class="bold" x="540" y="0">
		<g>
			<path class="bls-1" d="M78.69,61.91c-.07-.27-.65-.76-.85-.95s-.65-.55-1-.85c-.57-.57-1.1-1.18-1.68-1.73C74,57.23,72.89,56,71.72,54.84s-2.33-2.23-3.47-3.37l-1.8-1.8a12.8,12.8,0,0,0-1.64-1.73H75c.71,0,1.42,0,2.12,0a2.67,2.67,0,0,0,.4,0c.77-.19.52-1.12.51-1.75a41.24,41.24,0,0,0-1.56-10.82A26.21,26.21,0,0,0,72.36,27,69.34,69.34,0,0,0,66,20.35L53.72,8.1a24.6,24.6,0,0,0-6.75-5A31.11,31.11,0,0,0,37.59.44c-7.21-.93-15.33-.59-21.87,2.9C1.85,10.73.41,28.93.07,42.87A184.39,184.39,0,0,0,1,67.29c.79,7.26,2.49,15.22,7.39,20.91,2,2.27,4.27,4.32,6.39,6.45l6.13,6.12L27,106.89a20.61,20.61,0,0,0,8.78,5.32,34.52,34.52,0,0,0,11.49,1.24A23.79,23.79,0,0,0,58,110.67a17,17,0,0,0,2.34-1.61c.3-.24.6-.69,1-.6.17.05.65.7.79.84.51.51,1,1,1.5,1.55s.91,1.08,1.43,1.24a4.7,4.7,0,0,0,1.06,0H77.68c.29,0,.88.11,1.15-.07s.25-1.08.25-1.48V63.31C79.08,62.91,79.23,62,78.69,61.91ZM37.53,65.25c.09.4.91,1,1.2,1.31s.9.79,1.32,1.21.78.89,1.2,1.31,1,.66.91,1.47a14,14,0,0,1-4.25,8c-.17-2.17-.28-4.34-.35-6.51q-.06-1.67-.09-3.33C37.46,68.23,37.44,65.23,37.53,65.25ZM59.7,93.09c.14-.27.26-.54.38-.8C60.08,92.65,60.26,93.25,59.7,93.09ZM40.32,39.7a12.41,12.41,0,0,1,3.57-5.24A4.62,4.62,0,0,1,45,33.68c.57-.2.45,0,.86.43.66.66,1.37,1.26,2,1.92l4,4c.63.63,1.24,1.29,1.87,1.92.33.33.68.63,1,1a7.57,7.57,0,0,0,.93,1H39.07A28,28,0,0,1,40.32,39.7Z" transform="translate(0 0)"></path>
			<path class="bls-2" d="M41.34,24.2a17,17,0,0,0-1.85-4.92,11.92,11.92,0,0,0-3.26-3.71,7.88,7.88,0,0,0-4.79-1.47q-6.64,0-9.58,7.42T18.92,46.05q0,8.18.51,14.82a57.7,57.7,0,0,0,1.85,11.31,16.38,16.38,0,0,0,3.84,7.16,8.73,8.73,0,0,0,6.45,2.49,9,9,0,0,0,3.64-.89,12.05,12.05,0,0,0,3.71-2.69,14.36,14.36,0,0,0,2.87-4.53,16.6,16.6,0,0,0,1.15-6.46V57.93H30.8V44.39H60.58v49.2H47V85.15h-.25a19.42,19.42,0,0,1-8,7.61A25.69,25.69,0,0,1,27.61,95q-8.43,0-13.74-2.94A20.17,20.17,0,0,1,5.56,83a46.41,46.41,0,0,1-4-15.14,188.15,188.15,0,0,1-1-20.9A122.46,122.46,0,0,1,2,26.75a40.49,40.49,0,0,1,5-14.5A23.13,23.13,0,0,1,16.49,3.5Q22.37.56,31.19.56,46.27.56,52.91,8t6.64,21.41H41.92A24.52,24.52,0,0,0,41.34,24.2Z" transform="translate(0 0)"></path>
			<path class="bls-3" d="M62.13,45.35a71651831315880.73,71651831315880.73,0,0,0-.72-.72.49.49,0,0,0-.36-.36.48.48,0,0,0-.47-.38H30.8a.5.5,0,0,0-.5.5V57.93a.49.49,0,0,0,.39.48.47.47,0,0,0,.36.36.47.47,0,0,0,.36.36.47.47,0,0,0,.36.36.48.48,0,0,0,.47.38h10.2v7.39a16.17,16.17,0,0,1-1.11,6.26,14.22,14.22,0,0,1-2.77,4.39A11.74,11.74,0,0,1,35,80.48a8.57,8.57,0,0,1-3.44.85,8.46,8.46,0,0,1-5.38-1.72,17.2,17.2,0,0,1-3-6.13,56.72,56.72,0,0,1-1.83-11.2c-.34-4.38-.51-9.36-.51-14.79,0-11.3,1-19.5,2.9-24.35S28.64,16,32.88,16a7.47,7.47,0,0,1,4.5,1.37l.48.41a11.63,11.63,0,0,1,1.2,1.71,16.76,16.76,0,0,1,1.8,4.77,24.94,24.94,0,0,1,.56,5.14.48.48,0,0,0,.38.47.52.52,0,0,0,.36.37.49.49,0,0,0,.36.35.49.49,0,0,0,.36.36.5.5,0,0,0,.48.39H61a.5.5,0,0,0,.5-.5c0-9.37-2.27-16.68-6.77-21.74-.32-.36-.65-.7-1-1l-.36-.35L53,7.38c-.11-.12-.23-.23-.35-.35-4.55-4.62-11.76-7-21.45-7-5.93,0-11,1-14.92,3A23.65,23.65,0,0,0,6.61,12,41.18,41.18,0,0,0,1.49,26.67,123.4,123.4,0,0,0,0,46.94a188.72,188.72,0,0,0,1,21A47.12,47.12,0,0,0,5.12,83.2,22.32,22.32,0,0,0,9.9,89.79l.37.36.35.35.37.37a19.27,19.27,0,0,0,4.08,3.06c3.59,2,8.3,3,14,3a26.35,26.35,0,0,0,11.39-2.28,18.24,18.24,0,0,0,6.09-4.87v3.81a5.28,5.28,0,0,0,.74.83.5.5,0,0,0,.37.36.46.46,0,0,0,.35.36.51.51,0,0,0,.48.39H62a.51.51,0,0,0,.5-.5V45.83A.5.5,0,0,0,62.13,45.35Zm-24.29-29a12,12,0,0,0-1.31-1.15,8.35,8.35,0,0,0-5.09-1.57c-4.63,0-8,2.6-10,7.73-2,5-3,13.29-3,24.72,0,5.46.17,10.46.51,14.86A58.08,58.08,0,0,0,20.8,72.32a16.92,16.92,0,0,0,4,7.37l.17.15.19.21.18.16.18.2.17.15.19.21c.06.06.12.1.17.16s.13.14.19.2A9.26,9.26,0,0,0,33,83.77a9.54,9.54,0,0,0,3.85-.94A12.7,12.7,0,0,0,40.72,80a15.08,15.08,0,0,0,3-4.69,17.2,17.2,0,0,0,1.19-6.65V59.37a.48.48,0,0,0-.38-.47.49.49,0,0,0-.36-.36.49.49,0,0,0-.36-.36.49.49,0,0,0-.36-.36.49.49,0,0,0-.48-.39H32.74V46.33H60.08V93.09H49v-6.5a.48.48,0,0,0-.38-.47,35825915657937.28,35825915657937.28,0,0,1-.72-.72.49.49,0,0,0-.36-.36.5.5,0,0,0-.48-.39h-.25a.5.5,0,0,0-.43.24,19,19,0,0,1-7.78,7.42,25.32,25.32,0,0,1-11,2.18c-5.51,0-10-1-13.5-2.87a18.62,18.62,0,0,1-3.3-2.37,22.32,22.32,0,0,1-3.36-5,46.26,46.26,0,0,1-4-15,186.62,186.62,0,0,1-1-20.84,122.49,122.49,0,0,1,1.46-20.1A40.07,40.07,0,0,1,8.9,14a22.81,22.81,0,0,1,9.25-8.57C22,3.47,26.85,2.5,32.63,2.5c8.86,0,15.56,2,19.95,5.92C56.8,13.2,59,20.1,59.05,28.94H43.77a25.74,25.74,0,0,0-.5-3.41,17.88,17.88,0,0,0-1.9-5.06,13,13,0,0,0-2.46-3.08L38.56,17l-.38-.37Z" transform="translate(0 0)"></path>
			<path class="bls-4" d="M27.61,95.49c-5.68,0-10.39-1-14-3A20.64,20.64,0,0,1,5.12,83.2,47.12,47.12,0,0,1,1,67.89a188.72,188.72,0,0,1-1-21A123.4,123.4,0,0,1,1.49,26.67,41.18,41.18,0,0,1,6.61,12a23.65,23.65,0,0,1,9.66-8.94c4-2,9-3,14.92-3C41.34.06,48.77,2.63,53.28,7.7s6.77,12.37,6.77,21.74a.5.5,0,0,1-.5.5H41.92a.5.5,0,0,1-.5-.5,24.94,24.94,0,0,0-.56-5.14h0a16.76,16.76,0,0,0-1.8-4.77A11.68,11.68,0,0,0,35.94,16a7.47,7.47,0,0,0-4.5-1.37c-4.24,0-7.22,2.33-9.12,7.1s-2.9,13.05-2.9,24.35c0,5.43.17,10.41.51,14.79A56.72,56.72,0,0,0,21.76,72,15.9,15.9,0,0,0,25.47,79a8.28,8.28,0,0,0,6.1,2.35A8.57,8.57,0,0,0,35,80.48a11.74,11.74,0,0,0,3.55-2.57,14.22,14.22,0,0,0,2.77-4.39,16.17,16.17,0,0,0,1.11-6.26V58.43H30.8a.5.5,0,0,1-.5-.5V44.39a.5.5,0,0,1,.5-.5H60.58a.5.5,0,0,1,.5.5v49.2a.51.51,0,0,1-.5.5H47a.51.51,0,0,1-.5-.5V86.45A19.36,19.36,0,0,1,39,93.21,26.43,26.43,0,0,1,27.61,95.49ZM31.19,1.06c-5.78,0-10.64,1-14.48,2.88a22.81,22.81,0,0,0-9.25,8.57,40.07,40.07,0,0,0-5,14.33A122.49,122.49,0,0,0,1,46.94,186.62,186.62,0,0,0,2,67.78a46.26,46.26,0,0,0,4,15,19.69,19.69,0,0,0,8.1,8.86c3.45,1.91,8,2.87,13.5,2.87a25.32,25.32,0,0,0,11-2.18,19,19,0,0,0,7.78-7.42.5.5,0,0,1,.43-.24H47a.5.5,0,0,1,.5.5v7.94H60.08V44.89H31.3V57.43H42.94a.5.5,0,0,1,.5.5v9.33a17.17,17.17,0,0,1-1.19,6.65,14.9,14.9,0,0,1-3,4.69,12.7,12.7,0,0,1-3.86,2.79,9.38,9.38,0,0,1-3.85.94,9.26,9.26,0,0,1-6.81-2.64,16.92,16.92,0,0,1-4-7.37,58.08,58.08,0,0,1-1.87-11.41c-.34-4.4-.51-9.4-.51-14.86,0-11.43,1-19.75,3-24.72,2-5.13,5.42-7.73,10.05-7.73a8.35,8.35,0,0,1,5.09,1.57A12.66,12.66,0,0,1,39.93,19a17.88,17.88,0,0,1,1.9,5.06,24.87,24.87,0,0,1,.58,4.85H59.05c-.08-8.88-2.27-15.8-6.51-20.57S41,1.06,31.19,1.06Z" transform="translate(0 0)"></path>
			<path class="bls-5" d="M18.67,23.27c.23-.77.48-1.5.75-2.17q.28-.72.6-1.38H8.73a35.15,35.15,0,0,0-1.17,3.55Z" transform="translate(0 0)"></path>
			<path class="bls-5" d="M45.5,23.27H56.31a33.08,33.08,0,0,0-.78-3.55H44.21A20.58,20.58,0,0,1,45.5,23.27Z" transform="translate(0 0)"></path>
			<path class="bls-5" d="M57.89,90.89V65.54H47.45v2.63A20.19,20.19,0,0,1,46,76a18.14,18.14,0,0,1-3.6,5.65,15.75,15.75,0,0,1-4.82,3.47,12.55,12.55,0,0,1-5.12,1.21,12.22,12.22,0,0,1-9-3.55,19.88,19.88,0,0,1-4.75-8.7,54.42,54.42,0,0,1-1.64-8.55H5.74c.09,1,.18,1.9.29,2.8a43.05,43.05,0,0,0,3.68,14,16.33,16.33,0,0,0,6.82,7.5c3,1.65,7,2.49,12,2.49a22.27,22.27,0,0,0,9.62-1.88,16,16,0,0,0,6.48-6.25l1.06-1.71h5.86v8.43Z" transform="translate(0 0)"></path>
			<polygon class="bls-5" points="57.89 55.89 57.89 48.9 35.31 48.9 35.31 55.24 47.45 55.24 47.45 55.89 57.89 55.89"></polygon>
			<path class="bls-5" d="M16.59,36c.18-2.39.43-4.58.73-6.56h-11C6,31.45,5.7,33.64,5.5,36Z" transform="translate(0 0)"></path>
			<path class="bls-5" d="M16.23,47c0-1,0-2,0-3H5.08c0,1.27,0,2.55,0,3.87q0,4.2.13,8H16.4C16.29,53.07,16.23,50.1,16.23,47Z" transform="translate(0 0)"></path>
			<path class="bls-5" d="M19,7.63A20.78,20.78,0,0,0,16.67,9H48.45a18.14,18.14,0,0,0-3.8-2H20.33Q19.66,7.3,19,7.63Z" transform="translate(0 0)"></path>
		</g>
	</svg>
</svg>
